# xmcd CD database file
#
# Track frame offsets:
#	150
#	15526
#	38499
#	60074
#	83984
#	107533
#	126024
#	144804
#	160270
#	178639
#
# Disc length: 2614 seconds
#
# Revision: 0
# Processed by: cddbd v1.5.2PL0 Copyright (c) Steve Scherf et al.
# Submitted via: CDex 1.77
#
DISCID=690a340a
DTITLE=Alessandro Galati Trio - Cubicq
DYEAR=1900
DGENRE=Jazz
TTITLE0=Cubicq
TTITLE1=I should doubt in autumn
TTITLE2=Mary prayer
TTITLE3=Stringimi forte i polsi
TTITLE4=My delicarchitect
TTITLE5=Ma I'amore no
TTITLE6=Noir
TTITLE7=Blie in gleam
TTITLE8=Non dimenticar
TTITLE9=Nuovo cinema paradiso (Love theme)
EXTD=
EXTT0=
EXTT1=
EXTT2=
EXTT3=
EXTT4=
EXTT5=
EXTT6=
EXTT7=
EXTT8=
EXTT9=
PLAYORDER=
